<?xml version="1.0" encoding="UTF-8" standalone="no"?>
<!DOCTYPE svg PUBLIC "-//W3C//DTD SVG 1.1//EN"
 "http://www.w3.org/Graphics/SVG/1.1/DTD/svg11.dtd">
<!-- Generated by graphviz version 8.0.4 (20230421.1958)
 -->
<!-- Title: snakemake_dag Pages: 1 -->
<svg width="490pt" height="260pt"
 viewBox="0.00 0.00 490.00 260.00" xmlns="http://www.w3.org/2000/svg" xmlns:xlink="http://www.w3.org/1999/xlink">
<g id="graph0" class="graph" transform="scale(1 1) rotate(0) translate(4 256)">
<title>snakemake_dag</title>
<polygon fill="white" stroke="none" points="-4,4 -4,-256 486,-256 486,4 -4,4"/>
<!-- 0 -->
<g id="node1" class="node">
<title>0</title>
<path fill="none" stroke="#80d856" stroke-width="2" d="M173.88,-36C173.88,-36 143.88,-36 143.88,-36 137.88,-36 131.88,-30 131.88,-24 131.88,-24 131.88,-12 131.88,-12 131.88,-6 137.88,0 143.88,0 143.88,0 173.88,0 173.88,0 179.88,0 185.88,-6 185.88,-12 185.88,-12 185.88,-24 185.88,-24 185.88,-30 179.88,-36 173.88,-36"/>
<text text-anchor="middle" x="158.88" y="-14.12" font-family="sans" font-size="10.00">all</text>
</g>
<!-- 1 -->
<g id="node2" class="node">
<title>1</title>
<path fill="none" stroke="#56d8d8" stroke-width="2" d="M43.75,-108C43.75,-108 12,-108 12,-108 6,-108 0,-102 0,-96 0,-96 0,-84 0,-84 0,-78 6,-72 12,-72 12,-72 43.75,-72 43.75,-72 49.75,-72 55.75,-78 55.75,-84 55.75,-84 55.75,-96 55.75,-96 55.75,-102 49.75,-108 43.75,-108"/>
<text text-anchor="middle" x="27.88" y="-86.12" font-family="sans" font-size="10.00">rulegraph</text>
</g>
<!-- 1&#45;&gt;0 -->
<g id="edge4" class="edge">
<title>1&#45;&gt;0</title>
<path fill="none" stroke="grey" stroke-width="2" d="M56.62,-73.64C75.13,-63.75 99.43,-50.76 119.7,-39.93"/>
<polygon fill="grey" stroke="grey" stroke-width="2" points="121.92,-42.65 129.09,-34.85 118.62,-36.47 121.92,-42.65"/>
</g>
<!-- 2 -->
<g id="node3" class="node">
<title>2</title>
<path fill="none" stroke="#56a9d8" stroke-width="2" d="M111.25,-180C111.25,-180 58.5,-180 58.5,-180 52.5,-180 46.5,-174 46.5,-168 46.5,-168 46.5,-156 46.5,-156 46.5,-150 52.5,-144 58.5,-144 58.5,-144 111.25,-144 111.25,-144 117.25,-144 123.25,-150 123.25,-156 123.25,-156 123.25,-168 123.25,-168 123.25,-174 117.25,-180 111.25,-180"/>
<text text-anchor="middle" x="84.88" y="-158.12" font-family="sans" font-size="10.00">gps_data_geo</text>
</g>
<!-- 2&#45;&gt;0 -->
<g id="edge5" class="edge">
<title>2&#45;&gt;0</title>
<path fill="none" stroke="grey" stroke-width="2" d="M85.34,-143.19C86.52,-124.41 90.42,-94.47 102.88,-72 108.33,-62.16 116.25,-53.06 124.42,-45.28"/>
<polygon fill="grey" stroke="grey" stroke-width="2" points="126.83,-48.05 131.99,-38.79 122.19,-42.81 126.83,-48.05"/>
</g>
<!-- 3 -->
<g id="node4" class="node">
<title>3</title>
<path fill="none" stroke="#56d8a9" stroke-width="2" d="M196.75,-252C196.75,-252 165,-252 165,-252 159,-252 153,-246 153,-240 153,-240 153,-228 153,-228 153,-222 159,-216 165,-216 165,-216 196.75,-216 196.75,-216 202.75,-216 208.75,-222 208.75,-228 208.75,-228 208.75,-240 208.75,-240 208.75,-246 202.75,-252 196.75,-252"/>
<text text-anchor="middle" x="180.88" y="-230.12" font-family="sans" font-size="10.00">gps_data</text>
</g>
<!-- 3&#45;&gt;2 -->
<g id="edge6" class="edge">
<title>3&#45;&gt;2</title>
<path fill="none" stroke="grey" stroke-width="2" d="M156.4,-215.15C145.23,-207.01 131.8,-197.22 119.61,-188.33"/>
<polygon fill="grey" stroke="grey" stroke-width="2" points="121.45,-184.88 111.3,-181.81 117.32,-190.53 121.45,-184.88"/>
</g>
<!-- 5 -->
<g id="node6" class="node">
<title>5</title>
<path fill="none" stroke="#afd856" stroke-width="2" d="M203.75,-180C203.75,-180 154,-180 154,-180 148,-180 142,-174 142,-168 142,-168 142,-156 142,-156 142,-150 148,-144 154,-144 154,-144 203.75,-144 203.75,-144 209.75,-144 215.75,-150 215.75,-156 215.75,-156 215.75,-168 215.75,-168 215.75,-174 209.75,-180 203.75,-180"/>
<text text-anchor="middle" x="178.88" y="-158.12" font-family="sans" font-size="10.00">skmob_visits</text>
</g>
<!-- 3&#45;&gt;5 -->
<g id="edge8" class="edge">
<title>3&#45;&gt;5</title>
<path fill="none" stroke="grey" stroke-width="2" d="M180.37,-215.34C180.18,-208.75 179.96,-201.08 179.75,-193.67"/>
<polygon fill="grey" stroke="grey" stroke-width="2" points="183.17,-193.8 179.39,-183.9 176.17,-194 183.17,-193.8"/>
</g>
<!-- 7 -->
<g id="node8" class="node">
<title>7</title>
<path fill="none" stroke="#d8ac56" stroke-width="2" d="M302.12,-180C302.12,-180 245.62,-180 245.62,-180 239.62,-180 233.62,-174 233.62,-168 233.62,-168 233.62,-156 233.62,-156 233.62,-150 239.62,-144 245.62,-144 245.62,-144 302.12,-144 302.12,-144 308.12,-144 314.12,-150 314.12,-156 314.12,-156 314.12,-168 314.12,-168 314.12,-174 308.12,-180 302.12,-180"/>
<text text-anchor="middle" x="273.88" y="-158.12" font-family="sans" font-size="10.00">lachesis_visits</text>
</g>
<!-- 3&#45;&gt;7 -->
<g id="edge11" class="edge">
<title>3&#45;&gt;7</title>
<path fill="none" stroke="grey" stroke-width="2" d="M204.34,-215.34C215.05,-207.27 227.95,-197.57 239.71,-188.72"/>
<polygon fill="grey" stroke="grey" stroke-width="2" points="242.21,-190.71 248.09,-181.9 238,-185.12 242.21,-190.71"/>
</g>
<!-- 10 -->
<g id="node11" class="node">
<title>10</title>
<path fill="none" stroke="#d6d856" stroke-width="2" d="M453.5,-180C453.5,-180 360.25,-180 360.25,-180 354.25,-180 348.25,-174 348.25,-168 348.25,-168 348.25,-156 348.25,-156 348.25,-150 354.25,-144 360.25,-144 360.25,-144 453.5,-144 453.5,-144 459.5,-144 465.5,-150 465.5,-156 465.5,-156 465.5,-168 465.5,-168 465.5,-174 459.5,-180 453.5,-180"/>
<text text-anchor="middle" x="406.88" y="-158.12" font-family="sans" font-size="10.00">lachesis_visits_release</text>
</g>
<!-- 3&#45;&gt;10 -->
<g id="edge13" class="edge">
<title>3&#45;&gt;10</title>
<path fill="none" stroke="grey" stroke-width="2" d="M209.66,-219.93C213.08,-218.54 216.54,-217.19 219.88,-216 257.23,-202.64 299.71,-190.37 334.73,-181.01"/>
<polygon fill="grey" stroke="grey" stroke-width="2" points="336.5,-183.63 345.27,-177.7 334.71,-176.87 336.5,-183.63"/>
</g>
<!-- 4 -->
<g id="node5" class="node">
<title>4</title>
<path fill="none" stroke="#d85656" stroke-width="2" d="M194.25,-108C194.25,-108 123.5,-108 123.5,-108 117.5,-108 111.5,-102 111.5,-96 111.5,-96 111.5,-84 111.5,-84 111.5,-78 117.5,-72 123.5,-72 123.5,-72 194.25,-72 194.25,-72 200.25,-72 206.25,-78 206.25,-84 206.25,-84 206.25,-96 206.25,-96 206.25,-102 200.25,-108 194.25,-108"/>
<text text-anchor="middle" x="158.88" y="-86.12" font-family="sans" font-size="10.00">skmob_visits_geo</text>
</g>
<!-- 4&#45;&gt;0 -->
<g id="edge1" class="edge">
<title>4&#45;&gt;0</title>
<path fill="none" stroke="grey" stroke-width="2" d="M158.88,-71.34C158.88,-64.75 158.88,-57.08 158.88,-49.67"/>
<polygon fill="grey" stroke="grey" stroke-width="2" points="162.38,-49.9 158.88,-39.9 155.38,-49.9 162.38,-49.9"/>
</g>
<!-- 5&#45;&gt;4 -->
<g id="edge7" class="edge">
<title>5&#45;&gt;4</title>
<path fill="none" stroke="grey" stroke-width="2" d="M173.83,-143.34C171.92,-136.67 169.7,-128.89 167.56,-121.39"/>
<polygon fill="grey" stroke="grey" stroke-width="2" points="170.1,-119.56 163.99,-110.9 163.37,-121.48 170.1,-119.56"/>
</g>
<!-- 6 -->
<g id="node7" class="node">
<title>6</title>
<path fill="none" stroke="#59d856" stroke-width="2" d="M313.62,-108C313.62,-108 236.12,-108 236.12,-108 230.12,-108 224.12,-102 224.12,-96 224.12,-96 224.12,-84 224.12,-84 224.12,-78 230.12,-72 236.12,-72 236.12,-72 313.62,-72 313.62,-72 319.62,-72 325.62,-78 325.62,-84 325.62,-84 325.62,-96 325.62,-96 325.62,-102 319.62,-108 313.62,-108"/>
<text text-anchor="middle" x="274.88" y="-86.12" font-family="sans" font-size="10.00">lachesis_visits_geo</text>
</g>
<!-- 6&#45;&gt;0 -->
<g id="edge3" class="edge">
<title>6&#45;&gt;0</title>
<path fill="none" stroke="grey" stroke-width="2" d="M245.3,-71.15C230.83,-62.42 213.21,-51.79 197.67,-42.41"/>
<polygon fill="grey" stroke="grey" stroke-width="2" points="199.17,-39.02 188.8,-36.85 195.55,-45.01 199.17,-39.02"/>
</g>
<!-- 7&#45;&gt;6 -->
<g id="edge9" class="edge">
<title>7&#45;&gt;6</title>
<path fill="none" stroke="grey" stroke-width="2" d="M274.13,-143.34C274.22,-136.75 274.33,-129.08 274.44,-121.67"/>
<polygon fill="grey" stroke="grey" stroke-width="2" points="277.98,-121.95 274.62,-111.9 270.98,-121.85 277.98,-121.95"/>
</g>
<!-- 8 -->
<g id="node9" class="node">
<title>8</title>
<path fill="none" stroke="#56d882" stroke-width="2" d="M307.38,-252C307.38,-252 240.38,-252 240.38,-252 234.38,-252 228.38,-246 228.38,-240 228.38,-240 228.38,-228 228.38,-228 228.38,-222 234.38,-216 240.38,-216 240.38,-216 307.38,-216 307.38,-216 313.38,-216 319.38,-222 319.38,-228 319.38,-228 319.38,-240 319.38,-240 319.38,-246 313.38,-252 307.38,-252"/>
<text text-anchor="middle" x="273.88" y="-230.12" font-family="sans" font-size="10.00">compile_lachesis</text>
</g>
<!-- 8&#45;&gt;7 -->
<g id="edge10" class="edge">
<title>8&#45;&gt;7</title>
<path fill="none" stroke="grey" stroke-width="2" d="M273.88,-215.34C273.88,-208.75 273.88,-201.08 273.88,-193.67"/>
<polygon fill="grey" stroke="grey" stroke-width="2" points="277.38,-193.9 273.88,-183.9 270.38,-193.9 277.38,-193.9"/>
</g>
<!-- 9 -->
<g id="node10" class="node">
<title>9</title>
<path fill="none" stroke="#d88556" stroke-width="2" d="M470,-108C470,-108 355.75,-108 355.75,-108 349.75,-108 343.75,-102 343.75,-96 343.75,-96 343.75,-84 343.75,-84 343.75,-78 349.75,-72 355.75,-72 355.75,-72 470,-72 470,-72 476,-72 482,-78 482,-84 482,-84 482,-96 482,-96 482,-102 476,-108 470,-108"/>
<text text-anchor="middle" x="412.88" y="-86.12" font-family="sans" font-size="10.00">lachesis_visits_release_geo</text>
</g>
<!-- 9&#45;&gt;0 -->
<g id="edge2" class="edge">
<title>9&#45;&gt;0</title>
<path fill="none" stroke="grey" stroke-width="2" d="M347.79,-71.06C300.81,-58.12 238.86,-41.04 198.94,-30.04"/>
<polygon fill="grey" stroke="grey" stroke-width="2" points="199.12,-25.91 188.55,-26.63 197.26,-32.66 199.12,-25.91"/>
</g>
<!-- 10&#45;&gt;9 -->
<g id="edge12" class="edge">
<title>10&#45;&gt;9</title>
<path fill="none" stroke="grey" stroke-width="2" d="M408.39,-143.34C408.95,-136.75 409.61,-129.08 410.25,-121.67"/>
<polygon fill="grey" stroke="grey" stroke-width="2" points="413.97,-122.16 411.34,-111.9 407,-121.57 413.97,-122.16"/>
</g>
<!-- 11 -->
<g id="node12" class="node">
<title>11</title>
<path fill="none" stroke="#5682d8" stroke-width="2" d="M458.75,-252C458.75,-252 355,-252 355,-252 349,-252 343,-246 343,-240 343,-240 343,-228 343,-228 343,-222 349,-216 355,-216 355,-216 458.75,-216 458.75,-216 464.75,-216 470.75,-222 470.75,-228 470.75,-228 470.75,-240 470.75,-240 470.75,-246 464.75,-252 458.75,-252"/>
<text text-anchor="middle" x="406.88" y="-230.12" font-family="sans" font-size="10.00">compile_lachesis_release</text>
</g>
<!-- 11&#45;&gt;10 -->
<g id="edge14" class="edge">
<title>11&#45;&gt;10</title>
<path fill="none" stroke="grey" stroke-width="2" d="M406.88,-215.34C406.88,-208.75 406.88,-201.08 406.88,-193.67"/>
<polygon fill="grey" stroke="grey" stroke-width="2" points="410.38,-193.9 406.88,-183.9 403.38,-193.9 410.38,-193.9"/>
</g>
</g>
</svg>
